<?xml version="1.0" encoding="UTF-8"?>
<svg id="Layer_1" data-name="Layer 1" xmlns="http://www.w3.org/2000/svg" xmlns:xlink="http://www.w3.org/1999/xlink" viewBox="0 0 1080 1080">
  <defs>
    <style>
      .cls-1 {
        fill: url(#linear-gradient);
      }
    </style>
    <linearGradient id="linear-gradient" x1="540" y1="125.57" x2="540" y2="954.43" gradientUnits="userSpaceOnUse">
      <stop offset=".09" stop-color="#dccaa2"/>
      <stop offset=".19" stop-color="#dfc69f"/>
      <stop offset=".28" stop-color="#e8ba97"/>
      <stop offset=".37" stop-color="#f8a98c"/>
      <stop offset=".48" stop-color="#e79478"/>
      <stop offset=".59" stop-color="#db866a"/>
      <stop offset=".68" stop-color="#d88266"/>
      <stop offset="1" stop-color="#5d2a2c"/>
    </linearGradient>
  </defs>
  <path class="cls-1" d="M833.38,726.97v8.19h-22.24v43.79h-160.62v-49.64h-25.16v100.26h25.75v-25.36h182.86v24.58h57.35v-101.82h-57.93ZM867.32,801.29h-28.09v-46.81h28.09v46.81ZM602.28,829.57h-25.39v-142.25h25.39v72.55h0v69.7ZM621.29,719.48l-5.64-5.64,26.51-26.51,5.67,5.62-26.54,26.54ZM530.78,729.59h24.25v99.56h-79.77v-27.44h-57.35v-114.38h20.42v88.85h63.73v28.08h28.72v-74.67ZM489.01,750.95l-21.24-21.24,21.24-21.24,21.24,21.24-21.24,21.24ZM252.74,828.05l-11.69,11.69-11.69-11.69,11.69-11.69,11.69,11.69ZM214.37,839.74l-11.69-11.69,11.69-11.69,11.69,11.69-11.69,11.69ZM362.42,800.53h-77.97l-.05.08h-15.94v27.44h-12.97l-14.43-14.43-13.37,13.37-13.37-13.37-14.43,14.43h-11.2v-79.25h24.25v54.37h28.72v-27.54h57.81v-35.79h24.25v35.8h14.45v-35.8h24.25v35.8h14.45v-35.8h24.25v60.69h-38.7ZM208.33,940.7c0,4.17-3.14,7.57-9.26,7.57-4.32,0-7.73-1.57-10.37-4.17l1.88-2.34c2.22,2.22,4.93,3.79,8.61,3.79,4.05,0,6.12-2.22,6.12-4.59,0-2.79-2.48-3.9-7.07-4.97-5.28-1.22-8.61-2.87-8.61-7.42,0-4.2,3.75-7.5,8.79-7.5,3.9,0,6.81,1.53,9.22,3.75l-1.84,2.33c-2.18-2.1-4.79-3.36-7.54-3.36-3.25,0-5.62,2.14-5.62,4.55,0,2.72,2.6,3.68,7.07,4.74,5.01,1.19,8.61,2.98,8.61,7.61ZM225.02,927.61c-5.32,0-9.76,4.4-9.76,10.29s4.74,10.4,10.03,10.4c2.75,0,6.24-1.19,7.96-3.06l-1.76-1.87c-1.22,1.34-3.9,2.37-6.24,2.37-3.9,0-6.62-2.83-7.04-6.69h16.18c0-6.93-3.41-11.44-9.37-11.44ZM218.25,936.49c.53-3.82,3.36-6.31,6.89-6.31,3.94,0,6.04,2.75,6.42,6.31h-13.31ZM252.91,927.61v2.57c-4.47,0-7.65,2.75-7.65,6.62v11.06h-2.87v-19.77h2.87v3.86c1.19-2.64,4.02-4.33,7.65-4.33ZM263.22,922.56c0,1.03-.84,1.91-1.87,1.91s-1.91-.88-1.91-1.91.84-1.87,1.91-1.87,1.87.88,1.87,1.87ZM259.89,928.08h2.87v19.77h-2.87v-19.77ZM280.77,927.61c-5.55,0-10.25,4.71-10.25,10.33s4.7,10.36,10.25,10.36,10.22-4.74,10.22-10.36-4.67-10.33-10.22-10.33ZM280.77,945.75c-3.94,0-7.23-3.56-7.23-7.8s3.29-7.77,7.23-7.77,7.19,3.56,7.19,7.77-3.29,7.8-7.19,7.8ZM312.67,928.08h2.87v19.77h-2.87v-3.18c-1.14,2.11-3.71,3.63-6.51,3.63-4.36,0-7.42-3.17-7.42-7.65v-12.58h2.87v12.2c0,3.21,2.03,5.47,4.94,5.47,3.32,0,6.12-2.34,6.12-5.09v-12.58ZM338.66,942.34c0,3.63-3.14,5.96-7.23,5.96-2.75,0-5.81-1.03-8.18-2.94l1.49-2.11c2.25,1.65,4.52,2.49,6.69,2.49,2.6,0,4.36-1.23,4.36-3.1,0-2.14-2.29-2.83-4.97-3.59-4.78-1.38-6.62-2.79-6.62-5.62,0-3.6,2.98-5.82,6.92-5.82,2.45,0,4.97.85,7.08,2.22l-1.38,2.22c-1.99-1.26-3.94-1.87-5.7-1.87-2.22,0-4.05.99-4.05,2.91,0,1.72,1.45,2.26,5.13,3.45,3.17.99,6.46,2.06,6.46,5.81ZM376.79,933.89c2.37-1.38,3.75-2.98,3.75-5.78,0-3.82-2.99-6.54-7.23-6.54h-12.05v26.28h12.51c4.56,0,7.81-2.98,7.81-7.19,0-2.87-1.76-5.24-4.79-6.77ZM364.25,924.29h8.3c2.91,0,4.97,1.76,4.97,4.2s-2.07,4.21-4.97,4.21h-8.3v-8.41ZM373.01,945.14h-8.76v-9.72h8.76c3.25,0,5.55,2.03,5.55,4.86s-2.3,4.86-5.55,4.86ZM403.61,928.08h2.87v19.77h-2.87v-3.18c-1.14,2.11-3.71,3.63-6.51,3.63-4.36,0-7.42-3.17-7.42-7.65v-12.58h2.87v12.2c0,3.21,2.02,5.47,4.94,5.47,3.32,0,6.12-2.34,6.12-5.09v-12.58ZM429.6,942.34c0,3.63-3.14,5.96-7.23,5.96-2.75,0-5.81-1.03-8.18-2.94l1.49-2.11c2.25,1.65,4.52,2.49,6.69,2.49,2.6,0,4.36-1.23,4.36-3.1,0-2.14-2.29-2.83-4.97-3.59-4.78-1.38-6.62-2.79-6.62-5.62,0-3.6,2.98-5.82,6.92-5.82,2.45,0,4.97.85,7.08,2.22l-1.38,2.22c-1.99-1.26-3.94-1.87-5.7-1.87-2.22,0-4.05.99-4.05,2.91,0,1.72,1.45,2.26,5.13,3.45,3.17.99,6.46,2.06,6.46,5.81ZM440.66,922.56c0,1.03-.85,1.91-1.87,1.91s-1.91-.88-1.91-1.91.84-1.87,1.91-1.87,1.87.88,1.87,1.87ZM437.34,928.08h2.87v19.77h-2.87v-19.77ZM465.86,935.27v12.58h-2.87v-12.2c0-3.22-2.03-5.47-4.94-5.47-3.33,0-6.12,2.33-6.12,5.09v12.58h-2.87v-19.77h2.87v3.17c1.15-2.1,3.71-3.63,6.5-3.63,4.36,0,7.42,3.18,7.42,7.66ZM483.39,927.61c-5.32,0-9.76,4.4-9.76,10.29s4.74,10.4,10.03,10.4c2.75,0,6.24-1.19,7.96-3.06l-1.76-1.87c-1.22,1.34-3.9,2.37-6.24,2.37-3.9,0-6.62-2.83-7.04-6.69h16.18c0-6.93-3.4-11.44-9.37-11.44ZM476.62,936.49c.53-3.82,3.36-6.31,6.89-6.31,3.94,0,6.04,2.75,6.42,6.31h-13.31ZM514.73,942.34c0,3.63-3.14,5.96-7.23,5.96-2.75,0-5.81-1.03-8.18-2.94l1.49-2.11c2.25,1.65,4.52,2.49,6.69,2.49,2.6,0,4.36-1.23,4.36-3.1,0-2.14-2.3-2.83-4.97-3.59-4.78-1.38-6.62-2.79-6.62-5.62,0-3.6,2.98-5.82,6.92-5.82,2.45,0,4.97.85,7.08,2.22l-1.38,2.22c-1.99-1.26-3.94-1.87-5.7-1.87-2.22,0-4.05.99-4.05,2.91,0,1.72,1.45,2.26,5.13,3.45,3.17.99,6.46,2.06,6.46,5.81ZM536.73,942.34c0,3.63-3.14,5.96-7.23,5.96-2.75,0-5.82-1.03-8.19-2.94l1.5-2.11c2.25,1.65,4.51,2.49,6.69,2.49,2.6,0,4.36-1.23,4.36-3.1,0-2.14-2.3-2.83-4.97-3.59-4.79-1.38-6.62-2.79-6.62-5.62,0-3.6,2.99-5.82,6.93-5.82,2.45,0,4.97.85,7.07,2.22l-1.38,2.22c-1.98-1.26-3.94-1.87-5.69-1.87-2.22,0-4.06.99-4.06,2.91,0,1.72,1.46,2.26,5.13,3.45,3.18.99,6.46,2.06,6.46,5.81ZM577.13,940.7c0,4.17-3.14,7.57-9.26,7.57-4.32,0-7.73-1.57-10.37-4.17l1.88-2.34c2.22,2.22,4.93,3.79,8.61,3.79,4.05,0,6.12-2.22,6.12-4.59,0-2.79-2.48-3.9-7.07-4.97-5.28-1.22-8.61-2.87-8.61-7.42,0-4.2,3.75-7.5,8.79-7.5,3.9,0,6.81,1.53,9.22,3.75l-1.84,2.33c-2.18-2.1-4.79-3.36-7.54-3.36-3.25,0-5.62,2.14-5.62,4.55,0,2.72,2.6,3.68,7.07,4.74,5.01,1.19,8.61,2.98,8.61,7.61ZM593.81,944.94l1.41,2.1c-1.03.8-2.33,1.26-3.67,1.26-2.84,0-4.82-2.1-4.82-5.05v-12.62h-3.1v-2.56h3.1v-5.44h2.86v5.44h4.86v2.56h-4.86v12.62c0,1.46,1,2.49,2.14,2.49.88,0,1.64-.35,2.07-.8ZM616.25,928.08h2.87v19.77h-2.87v-3.18c-1.15,2.11-3.71,3.63-6.51,3.63-4.36,0-7.42-3.17-7.42-7.65v-12.58h2.87v12.2c0,3.21,2.03,5.47,4.93,5.47,3.33,0,6.12-2.34,6.12-5.09v-12.58ZM644.83,935.27v12.58h-2.87v-12.2c0-3.22-2.02-5.47-4.93-5.47-3.33,0-6.12,2.33-6.12,5.09v12.58h-2.87v-19.77h2.87v3.17c1.15-2.1,3.71-3.63,6.51-3.63,4.36,0,7.42,3.18,7.42,7.66ZM670.5,935.27v12.58h-2.87v-12.2c0-3.22-2.03-5.47-4.94-5.47-3.33,0-6.12,2.33-6.12,5.09v12.58h-2.87v-19.77h2.87v3.17c1.14-2.1,3.71-3.63,6.5-3.63,4.36,0,7.42,3.18,7.42,7.66ZM679.31,928.08h2.87v19.77h-2.87v-19.77ZM682.64,922.56c0,1.03-.84,1.91-1.87,1.91s-1.91-.88-1.91-1.91.84-1.87,1.91-1.87,1.87.88,1.87,1.87ZM707.84,935.27v12.58h-2.87v-12.2c0-3.22-2.03-5.47-4.93-5.47-3.33,0-6.12,2.33-6.12,5.09v12.58h-2.87v-19.77h2.87v3.17c1.15-2.1,3.71-3.63,6.51-3.63,4.36,0,7.42,3.18,7.42,7.66ZM732.06,931.48c-1.53-2.41-4.06-3.87-7.19-3.87-5.32,0-9.11,3.87-9.11,9.38s3.79,9.41,9.11,9.41c3.14,0,5.66-1.46,7.19-3.86v3.21c0,3.86-2.68,6.12-7.23,6.12-2.45,0-4.82-.87-6.35-2.33l-1.26,2.25c1.8,1.53,4.78,2.64,7.99,2.64,5.7,0,9.72-3.6,9.72-8.68v-17.67h-2.86v3.41ZM725.4,943.84c-3.86,0-6.62-2.83-6.62-6.85s2.75-6.81,6.62-6.81,6.66,2.83,6.66,6.81-2.75,6.85-6.66,6.85ZM758.29,921.57h18.86v2.83h-15.84v8.65h14.27v2.83h-14.27v9.14h15.84v2.83h-18.86v-26.28ZM799.57,928.08h3.21l-8.3,19.77h-2.75l-8.41-19.77h3.21l6.58,16.41,6.46-16.41ZM817.11,927.61c-5.32,0-9.76,4.4-9.76,10.29s4.74,10.4,10.03,10.4c2.75,0,6.24-1.19,7.96-3.06l-1.76-1.87c-1.22,1.34-3.9,2.37-6.24,2.37-3.9,0-6.62-2.83-7.04-6.69h16.18c0-6.93-3.41-11.44-9.37-11.44ZM810.34,936.49c.53-3.82,3.36-6.31,6.89-6.31,3.94,0,6.04,2.75,6.42,6.31h-13.31ZM851.05,935.27v12.58h-2.87v-12.2c0-3.22-2.03-5.47-4.93-5.47-3.33,0-6.12,2.33-6.12,5.09v12.58h-2.87v-19.77h2.87v3.17c1.15-2.1,3.71-3.63,6.5-3.63,4.36,0,7.42,3.18,7.42,7.66ZM868.57,944.94l1.42,2.1c-1.03.8-2.34,1.26-3.67,1.26-2.83,0-4.82-2.1-4.82-5.05v-12.62h-3.1v-2.56h3.1v-5.44h2.87v5.44h4.86v2.56h-4.86v12.62c0,1.46.99,2.49,2.14,2.49.87,0,1.64-.35,2.06-.8ZM891.32,942.34c0,3.63-3.14,5.96-7.23,5.96-2.75,0-5.81-1.03-8.18-2.94l1.49-2.11c2.25,1.65,4.52,2.49,6.69,2.49,2.6,0,4.36-1.23,4.36-3.1,0-2.14-2.3-2.83-4.97-3.59-4.78-1.38-6.62-2.79-6.62-5.62,0-3.6,2.98-5.82,6.92-5.82,2.45,0,4.97.85,7.08,2.22l-1.38,2.22c-1.99-1.26-3.94-1.87-5.7-1.87-2.22,0-4.05.99-4.05,2.91,0,1.72,1.45,2.26,5.13,3.45,3.17.99,6.46,2.06,6.46,5.81ZM224.93,858.08h12.5v44.27h-12.5v-23.72l-11.86,21.14-11.86-21.14v23.72h-12.5v-44.27h12.5l11.86,21.14,11.86-21.14ZM308.67,858.08l-17.02,44.27h14.11l2.26-5.93h15.4l2.25,5.93h14.12l-17.01-44.27h-14.11ZM311.57,887.21l4.19-10.76,4.12,10.76h-8.31ZM432.17,873.54c0-9.09-7.03-15.47-16.95-15.47h-21.2v44.27h12.5v-13.34h3.87l9.35,13.34h14.24l-10.57-15.01c5.41-2.52,8.77-7.47,8.77-13.79ZM414.18,877.67h-7.67v-8.25h7.67c2.97,0,5.09,1.74,5.09,4.12s-2.13,4.12-5.09,4.12ZM516.55,858.08h-14.11l-17.02,44.27h14.11l2.26-5.93h15.4l2.25,5.93h14.12l-17.01-44.27ZM505.33,887.21l4.19-10.76,4.12,10.76h-8.31ZM617.55,902.35l-17.27-23.72v23.72h-12.5v-44.27h12.5l17.27,23.72v-23.72h12.5v44.27h-12.5ZM700.64,896.43h15.41l2.25,5.93h14.12l-17.02-44.27h-14.11l-17.01,44.27h14.11l2.26-5.93ZM708.38,876.45l4.12,10.76h-8.31l4.19-10.76ZM804.42,903.13c-7.99,0-15.53-2.51-21.14-7.47l6.96-8.31c4.51,3.54,9.41,5.42,14.63,5.42,3.42,0,5.22-1.16,5.22-3.1,0-2.12-1.55-2.45-7.67-3.87-9.6-2.19-17.01-4.71-17.01-13.92s6.96-14.57,17.46-14.57c7.67,0,13.66,2.07,18.56,6l-6.25,8.83c-4.12-2.97-8.64-4.45-12.63-4.45-3.03,0-4.51,1.22-4.51,2.9,0,2.25,1.55,2.96,7.86,4.32,10.31,2.19,16.76,4.96,16.76,13.41,0,9.34-7.16,14.82-18.24,14.82ZM878.81,858.08h12.5v44.27h-12.5v-44.27ZM568.06,496.15c-3.34,9.53-12.09,15.44-23.03,15.89-10.74.44-20.27-5.42-24.98-15.95,16.38,6.68,32.12,6.28,48.01.07ZM522.15,437.93c2.8-1.94,4.69-2.76,7.66-4.46.48-.39,1.53-.31,1.69-.12,1.25.34,2.6.48,3.75,1.05,5.9,2.93,11.78,2.56,17.7.14,5.26-2.15,13.45.69,16.05,5.57,1.16,2.18.29,5.59-2.3,6.73-2.53,1.11-5.41,1.41-8.13,2.09-2.29.57-4.75.8-6.81,1.83-5.22,2.62-10.14,2.73-15.28-.24-1.69-.98-3.89-1.1-5.88-1.55-2.64-.6-5.51-.67-7.88-1.82-4.1-1.98-4.31-6.64-.57-9.22ZM559.38,466.23c8.3,4.95,16.39,10.27,24.66,15.51-4.45,2.97-9.42,3.21-14.6,1.86-7.5-1.97-14.93-2.97-22.56-.27-2,.71-4.66.49-6.74-.18-7.08-2.27-14.01-1.68-20.98.26-4.07,1.14-8.15,1.63-12.19-.11-1.06-.46-2.05-1.09-3.44-1.84,1.18-.67,1.93-1.07,2.66-1.51,5.33-3.19,10.72-6.27,15.95-9.61,4.33-2.76,8.41-6.61,13.87-5.8,5.48.82,10.72,1.14,16.21.05,2.21-.44,5.12.42,7.15,1.63ZM724.73,398c17.24-6.66,27.71-19.49,32.05-37.09,2.55-10.34,1.61-20.81-2.66-30.77-1.24-2.9-1.83-3.14-5.03-2.21-.33.1-.66.22-.99.32-4.95,1.56-9.33,4.16-13.43,7.28-6.54,4.97-11.86,10.97-15.45,18.42-.25.52-.58,1.01-1.1,1.92-.56-1.12-1.08-1.79-1.25-2.54-1.02-4.6-1.95-9.22-2.95-13.82-.36-1.66.44-2.56,1.77-3.35,6.06-3.62,11.24-8.18,15.64-13.78,8.48-10.78,12.22-23.04,11.95-36.58-.22-10.83-3.29-20.88-9.26-29.98-1.83-2.79-2.69-3.03-5.58-1.38-5.67,3.23-10.3,7.67-14.58,12.53-5.76,6.54-10.15,13.83-12.32,22.33-.53,2.07-.77,4.22-1.3,6.29-.24.92-.85,1.75-1.3,2.62-.72-.69-1.67-1.26-2.13-2.09-1.46-2.66-2.84-5.39-4.02-8.18-.32-.75-.17-2.06.3-2.74,7.77-11.19,11.7-23.65,11.48-37.17-.23-14.33-5.49-27-14.61-38.04-3.37-4.09-7.44-7.41-11.91-10.24-1.05-.67-1.97-.84-2.91.29-5.37,6.46-9.44,13.71-12.25,21.56-2.17,6.08-2.79,12.53-2.79,19,0,2.08.21,4.16.17,6.24,0,.59-.39,1.38-.86,1.69-.3.2-1.16-.17-1.62-.5-3.14-2.26-6.2-4.63-9.36-6.86-1.29-.91-1.63-1.87-1.11-3.36,1-2.88,1.94-5.79,2.79-8.71,2.88-9.94,2.63-20.01.91-30.09-.32-1.85-1.31-3.59-1.93-5.4-.98-2.87-1.58-5.92-2.89-8.63-5.81-12.02-13.87-22.18-25.37-29.28-5-3.09-10.05-6.12-15.87-7.48-2.52-.59-3.86-.22-4.66,2.17-1.85,5.48-3.76,11.01-4.83,16.67-.84,4.44-.45,9.11-.65,13.68-.29,6.97,1.06,13.64,3.47,20.15.27.73.41,1.51.61,2.27-.2.26-.39.52-.59.77-5.24-3.93-10.69-7.37-16.42-10.18-.22-1-.4-2.01-.64-2.99-.05-.23-.14-.48-.17-.67-.55-2.38-1.25-4.53-1.92-6.81v-.19c-.14-.41-.23-.81-.41-1.22-.72-2.41-1.56-4.8-2.42-7.13-.72-1.84-1.44-3.69-2.19-5.52-.36-.81-.72-1.61-1.08-2.42-4.72-10.58-10.79-20.41-17.91-29.37-3.31-4.16-6.89-8.11-10.64-11.86-3.75,3.75-7.33,7.71-10.64,11.86-7.13,8.96-13.19,18.79-17.91,29.37-.36.81-.72,1.61-1.08,2.42-.75,1.83-1.47,3.67-2.19,5.52-.86,2.33-1.7,4.72-2.42,7.13-.17.41-.27.81-.41,1.22v.19c-.67,2.28-1.38,4.44-1.92,6.81-.03.19-.12.44-.17.67-.12.51-.21,1.03-.33,1.54-7.27,3.07-14.22,7.06-20.84,12.25.09-1.49.03-2.3.21-3.05.99-4.09,2.21-8.13,3.02-12.25,2.64-13.43.35-26.34-4.5-38.93-1.13-2.94-1.23-3.09-4.02-2.24-2.76.84-5.56,1.79-8.06,3.2-5.17,2.91-10.39,5.83-15.15,9.35-6.24,4.62-10.85,10.75-14.8,17.47-5.45,9.26-8.13,19.31-9.61,29.81-1.03,7.33.88,14.29,2.41,21.3.66,3.03,1.64,6,2.43,9.01.41,1.55-.17,2.54-1.61,3.38-2.2,1.29-4.23,2.88-6.32,4.35-1.55,1.09-3.08,2.18-4.62,3.27-.23-.16-.47-.32-.7-.48-.03-.66-.15-1.33-.08-1.98,1.75-16.67-3.03-31.48-12.7-44.91-2.16-3-3.55-3.17-6.42-.99-.66.5-1.4.91-2.04,1.44-11.71,9.88-19.75,21.93-22.17,37.36-1.4,8.91-1.1,17.8,1.27,26.4,1.87,6.81,5.3,13.07,9.63,18.75.52.69,1.11,1.96.82,2.53-1.68,3.34-3.52,6.6-5.5,9.77-.79,1.26-1.87.94-2.35-.57-.29-.92-.44-1.89-.62-2.84-1.93-10.25-6.44-19.26-13.2-27.15-4.18-4.88-9.18-8.79-14.69-12.1-2.71-1.63-2.88-1.67-4.99.7-.32.36-.58.78-.84,1.19-4.33,7.05-7.57,14.57-8.22,22.86-.54,6.85-1.27,13.69.94,20.6,1.33,4.15,2.32,8.38,4.35,12.27,2.95,5.65,5.94,11.34,10.72,15.67,3.16,2.87,6.69,5.37,10.2,7.83,2.79,1.95,3.15,2.25,2.45,5.61-.59,2.84-1.37,5.64-2.09,8.46-.31,1.21-.57,2.44-1.06,3.58-.66,1.53-1.4,1.58-2.36.26-.37-.5-.64-1.07-.96-1.6-3.87-6.37-8.31-12.22-14.44-16.66-4.89-3.55-10.27-6-15.97-7.84-1.08-.35-2.15-.43-2.57.91-1.3,4.16-2.95,8.27-3.69,12.54-1.18,6.87-.55,13.73.85,20.63,1.72,8.41,5.75,15.66,10.79,22.22,3.04,3.96,7.48,6.96,11.63,9.92,2.66,1.9,5.89,3.03,8.95,4.32,2.04.86,3.39,1.98,3.37,4.39-.05,4.61-.02,9.23-.02,14.12-.75-.29-1.15-.38-1.47-.59-3.66-2.45-7.17-5.19-11.01-7.33-5.1-2.85-10.57-4.79-16.6-4.45-1.87.11-2.65.87-2.86,2.76-.89,7.75-.5,15.29,2.17,22.74,3.49,9.75,8.23,18.6,17.41,24.03,4.61,2.73,9.72,4.61,14.63,6.83,1.03.47,2.04.63,1.62,2.28-1.42,5.63-2.81,11.27-3.97,16.96-1.93,9.46-3.35,18.99-1.5,28.66.44,2.29,1.12,4.53,1.59,6.81.61,2.97.78,6.06,1.72,8.91,1.76,5.3,3.65,10.6,6.04,15.64,2.06,4.36,4.63,8.54,7.43,12.48,3.07,4.31,6.25,8.72,10.12,12.27,10.89,9.97,23.93,16.41,37.67,21.52,4.92,1.9,30.23,10.81,30.23,10.81,13.43,3.87,27.02,7.25,39.45,14.04,14.6,7.98,28.28,16.96,38.01,30.93,1.16,1.67,3.28,3.09,5.24,3.71,4.3,1.36,7.78-.32,10.52-3.9,4-5.23,8.39-10.05,13.42-14.41,10.73-9.3,22.85-16.19,35.92-21.33,9.66-3.79,19.64-6.81,29.59-9.76,4.45-1.33,26.96-9.51,26.96-9.51,12.78-4.14,24.6-10.18,35.14-18.51,11.94-9.43,19.94-21.85,25.39-35.88,3.91-10.07,6.02-20.61,6.18-31.47.18-12.74-1.94-25.14-5.72-37.26-.58-1.88-.12-2.55,1.65-3.12,5.95-1.93,11.79-4.24,16.7-8.23,8.71-7.08,14.37-16.15,17.09-27.08,1.52-6.11,1.2-12.24.73-18.4-.09-1.15-.27-2.52-1.95-2.4-3.02.22-6.11.22-9.04.88-5.39,1.21-10.03,4.21-14.72,7-2.06,1.22-4.03,2.59-6.39,4.11-.18-1.19-.39-1.98-.4-2.76-.05-3.47.1-6.94-.09-10.4-.15-2.76,1.08-4.07,3.55-5.03ZM544.42,162.86l.02.03.03-.03c4.86,5.52,7.8,12.79,7.8,20.79s-2.94,15.12-7.8,20.72l-.03-.02-.02.02c-4.86-5.6-7.8-12.79-7.8-20.72s2.94-15.27,7.8-20.79ZM645.66,436.16c-4.08,16.06-16.01,30.05-22.69,45.2-12.55,28.47-25.26,60.32-59.58,66.75-24.89,4.67-51.02-1.24-70.75-17.32-9.75-7.94-17.62-18.06-23.11-29.36-6.42-13.23-7.57-28.29-14.1-41.41-4.52-9.09-11.3-16.93-13.72-27-2.98-12.43-2.05-24.47,1.58-36.56,1.4-4.69,2.21-9.56,3.15-14.38,1.3-6.67,5.33-11.22,11.17-14.15,8.63-4.34,17.88-5.56,27.45-4.67,7.99.75,15.32,3.2,20.62,9.49,2.37,2.81,3.85,6.37,5.74,9.59-16.82-9.4-49.3-1.12-56.94,9.7,5.46,3.32,11.23,5.83,17.45,7.11,11.08,2.28,21.97,1.6,32.52-2.74,1.11-.46,2.28-.91,3.2-1.64,4.18-3.34,8.14-2.32,11.96.54,2.27,1.7,4.39,3.59,6.71,5.51,2.54-4.26,2.9-8.9,3.2-13.59.41-6.49.21-12.91-1.97-19.12-3.36-9.56-10.54-14.97-19.95-17.33-14.08-3.54-28.21-3.21-42.09,1.24-8.36,2.68-15.25,7.56-20.57,14.59-.43.57-.92,1.12-1.49,1.81-4.43-19.43,6.12-32.99,21.24-41.95,8.69-5.15,18.42-7.36,28.09-9.74,13.59-3.35,26.27-8.76,36.44-18.56,3.49-3.37,6.54-6.25,9.59-10.02-1.65-5.63-3.38-12.15-5.26-17.68-4.13-11.63-9.04-23.1-16.56-32.85-3.27-4.15-6.91-8.05-10.99-11.42-.2-.2-.43-.38-.66-.58-1.29-1.04-2.53-2.03-3.9-2.99-.23-.2-.51-.38-.78-.58.66-.08,1.29-.08,1.95-.08,1.62,0,3.19.15,4.74.28,1.95.15,3.77.48,5.65.86,5.9,1.24,11.88,3.44,16.74,7.27,5.39,4.08,8.81,10.13,11.22,16.36.35.68.58,1.42.86,2.13,0-2.61-.2-5.17-.51-7.85,0-.38-.08-.86-.15-1.24-.13-1.01-.23-2.08-.43-3.04-.23-1.34-.48-2.71-.81-4.03-.43-2.08-.94-4-1.6-6.03-2.48-8-6.26-15.4-11.12-21.96-1.67-2.41-3.57-4.64-5.6-6.74-1.39-1.55-2.96-3.09-4.58-4.61.79-.08,1.54-.13,2.33-.13,1.67,0,3.32.15,4.86.43,1.04.28,2.03.48,2.99.86,9.35,3.01,16.34,11.3,17.25,21.48.91-10.18,7.9-18.46,17.25-21.48.96-.38,1.95-.58,2.99-.86,1.54-.28,3.19-.43,4.86-.43.79,0,1.55.05,2.33.13-1.62,1.52-3.19,3.06-4.58,4.61-2.03,2.1-3.93,4.33-5.6,6.74-4.86,6.56-8.64,13.96-11.12,21.96-.66,2.03-1.16,3.95-1.6,6.03-.33,1.32-.58,2.68-.81,4.03-.2.96-.3,2.03-.43,3.04-.08.38-.15.86-.15,1.24-.3,2.68-.51,5.24-.51,7.85.28-.71.51-1.44.86-2.13,2.41-6.23,5.83-12.28,11.22-16.36,4.86-3.82,10.84-6.03,16.74-7.27,1.87-.38,3.7-.71,5.65-.86,1.54-.13,3.11-.28,4.74-.28.66,0,1.29,0,1.95.08-.28.2-.56.38-.78.58-1.37.96-2.61,1.95-3.9,2.99-.23.2-.46.38-.66.58-4.08,3.37-7.72,7.27-10.99,11.42-7.52,9.75-12.44,21.22-16.56,32.85-1.95,5.72-3.82,11.58-5.52,17.4.58.77,1.12,1.55,1.73,2.3,10.67,13.23,24.97,20.65,40.99,25.22,7.14,2.04,14.42,3.63,21.45,6.01,12.09,4.1,21.9,11.17,28.32,22.62,3.26,5.8,4.08,18.35,2.15,23.78-1.68-1.99-3.19-3.98-4.89-5.78-6.85-7.24-15.63-10.83-25.18-12.41-10.43-1.72-20.95-1.78-31.31.85-13.91,3.54-22.22,13.29-23.8,27.62-.84,7.58-.51,15.08,1.32,22.49.09.37.29.72.55,1.34,1.64-2.23,2.92-4.37,4.59-6.13,3.82-4.03,7.93-4.36,12.72-1.55,6.56,3.84,13.87,5.29,21.31,5.96,11.88,1.06,23.06-1.54,33.58-7.07.57-.3,1.09-.69,1.65-1.05-8.51-9.88-39.51-19.37-57.18-9.6,2.27-6.45,5.85-11.31,11.37-14.65,12.52-7.59,34.22-6.4,45.88,2.44,3.74,2.83,6.02,6.38,6.87,11.12,1.06,5.9,2.61,11.71,4.09,17.53,3.18,12.47,2.81,24.72-.37,37.26Z"/>
</svg>